{
  "asset": {
    "generator": "glTF-Transform v4.5.0",
    "version": "2.0"
  },
  "accessors": [
    {
      "type": "VEC3",
      "componentType": 5126,
      "count": 774,
      "max": [
        0.3835841417312622,
        0.37630003690719604,
        0.12212522327899933
      ],
      "min": [
        -0.3835841417312622,
        0,
        -0.1796252280473709
      ],
      "bufferView": 0,
      "byteOffset": 0
    },
    {
      "type": "VEC3",
      "componentType": 5126,
      "count": 774,
      "bufferView": 0,
      "byteOffset": 12
    },
    {
      "type": "VEC4",
      "componentType": 5126,
      "count": 774,
      "bufferView": 0,
      "byteOffset": 24
    },
    {
      "type": "VEC2",
      "componentType": 5126,
      "count": 774,
      "bufferView": 0,
      "byteOffset": 40
    },
    {
      "type": "VEC2",
      "componentType": 5126,
      "count": 774,
      "bufferView": 0,
      "byteOffset": 48
    },
    {
      "type": "VEC4",
      "componentType": 5123,
      "count": 774,
      "bufferView": 0,
      "byteOffset": 56
    },
    {
      "type": "VEC4",
      "componentType": 5126,
      "count": 774,
      "bufferView": 0,
      "byteOffset": 64
    },
    {
      "type": "SCALAR",
      "componentType": 5123,
      "count": 1260,
      "bufferView": 1,
      "byteOffset": 0
    },
    {
      "type": "SCALAR",
      "componentType": 5123,
      "count": 936,
      "bufferView": 1,
      "byteOffset": 2520
    },
    {
      "type": "VEC3",
      "componentType": 5126,
      "count": 548,
      "max": [
        0.22675086557865143,
        0.7755283713340759,
        0.20763878524303436
      ],
      "min": [
        -0.22675086557865143,
        0.3432497978210449,
        -0.29189151525497437
      ],
      "bufferView": 2,
      "byteOffset": 0
    },
    {
      "type": "VEC3",
      "componentType": 5126,
      "count": 548,
      "bufferView": 2,
      "byteOffset": 12
    },
    {
      "type": "VEC4",
      "componentType": 5126,
      "count": 548,
      "bufferView": 2,
      "byteOffset": 24
    },
    {
      "type": "VEC2",
      "componentType": 5126,
      "count": 548,
      "bufferView": 2,
      "byteOffset": 40
    },
    {
      "type": "VEC2",
      "componentType": 5126,
      "count": 548,
      "bufferView": 2,
      "byteOffset": 48
    },
    {
      "type": "VEC4",
      "componentType": 5123,
      "count": 548,
      "bufferView": 2,
      "byteOffset": 56
    },
    {
      "type": "VEC4",
      "componentType": 5126,
      "count": 548,
      "bufferView": 2,
      "byteOffset": 64
    },
    {
      "type": "SCALAR",
      "componentType": 5126,
      "count": 2,
      "max": [
        0.10000000149011612
      ],
      "min": [
        0
      ],
      "bufferView": 3,
      "byteOffset": 0
    },
    {
      "type": "VEC3",
      "componentType": 5126,
      "count": 2,
      "bufferView": 3,
      "byteOffset": 8
    },
    {
      "type": "SCALAR",
      "componentType": 5126,
      "count": 2,
      "max": [
        0.10000000149011612
      ],
      "min": [
        0
      ],
      "bufferView": 3,
      "byteOffset": 32
    },
    {
      "type": "VEC4",
      "componentType": 5126,
      "count": 2,
      "bufferView": 3,
      "byteOffset": 40
    },
    {
      "type": "SCALAR",
      "componentType": 5126,
      "count": 2,
      "max": [
        0.10000000149011612
      ],
      "min": [
        0
      ],
      "bufferView": 3,
      "byteOffset": 72
    },
    {
      "type": "VEC3",
      "componentType": 5126,
      "count": 2,
      "bufferView": 3,
      "byteOffset": 80
    },
    {
      "type": "SCALAR",
      "componentType": 5126,
      "count": 2,
      "max": [
        0.10000000149011612
      ],
      "min": [
        0
      ],
      "bufferView": 3,
      "byteOffset": 104
    },
    {
      "type": "VEC3",
      "componentType": 5126,
      "count": 2,
      "bufferView": 3,
      "byteOffset": 112
    },
    {
      "type": "SCALAR",
      "componentType": 5126,
      "count": 2,
      "max": [
        0.10000000149011612
      ],
      "min": [
        0
      ],
      "bufferView": 3,
      "byteOffset": 136
    },
    {
      "type": "VEC4",
      "componentType": 5126,
      "count": 2,
      "bufferView": 3,
      "byteOffset": 144
    },
    {
      "type": "SCALAR",
      "componentType": 5126,
      "count": 2,
      "max": [
        0.10000000149011612
      ],
      "min": [
        0
      ],
      "bufferView": 3,
      "byteOffset": 176
    },
    {
      "type": "VEC3",
      "componentType": 5126,
      "count": 2,
      "bufferView": 3,
      "byteOffset": 184
    },
    {
      "type": "SCALAR",
      "componentType": 5126,
      "count": 2,
      "max": [
        0.10000000149011612
      ],
      "min": [
        0
      ],
      "bufferView": 3,
      "byteOffset": 208
    },
    {
      "type": "VEC3",
      "componentType": 5126,
      "count": 2,
      "bufferView": 3,
      "byteOffset": 216
    },
    {
      "type": "SCALAR",
      "componentType": 5126,
      "count": 2,
      "max": [
        0.10000000149011612
      ],
      "min": [
        0
      ],
      "bufferView": 3,
      "byteOffset": 240
    },
    {
      "type": "VEC4",
      "componentType": 5126,
      "count": 2,
      "bufferView": 3,
      "byteOffset": 248
    },
    {
      "type": "SCALAR",
      "componentType": 5126,
      "count": 2,
      "max": [
        0.10000000149011612
      ],
      "min": [
        0
      ],
      "bufferView": 3,
      "byteOffset": 280
    },
    {
      "type": "VEC3",
      "componentType": 5126,
      "count": 2,
      "bufferView": 3,
      "byteOffset": 288
    },
    {
      "type": "SCALAR",
      "componentType": 5126,
      "count": 2,
      "max": [
        0.10000000149011612
      ],
      "min": [
        0
      ],
      "bufferView": 3,
      "byteOffset": 312
    },
    {
      "type": "VEC3",
      "componentType": 5126,
      "count": 2,
      "bufferView": 3,
      "byteOffset": 320
    },
    {
      "type": "SCALAR",
      "componentType": 5126,
      "count": 2,
      "max": [
        0.10000000149011612
      ],
      "min": [
        0
      ],
      "bufferView": 3,
      "byteOffset": 344
    },
    {
      "type": "VEC4",
      "componentType": 5126,
      "count": 2,
      "bufferView": 3,
      "byteOffset": 352
    },
    {
      "type": "SCALAR",
      "componentType": 5126,
      "count": 2,
      "max": [
        0.10000000149011612
      ],
      "min": [
        0
      ],
      "bufferView": 3,
      "byteOffset": 384
    },
    {
      "type": "VEC3",
      "componentType": 5126,
      "count": 2,
      "bufferView": 3,
      "byteOffset": 392
    },
    {
      "type": "SCALAR",
      "componentType": 5126,
      "count": 2,
      "max": [
        0.10000000149011612
      ],
      "min": [
        0
      ],
      "bufferView": 3,
      "byteOffset": 416
    },
    {
      "type": "VEC3",
      "componentType": 5126,
      "count": 2,
      "bufferView": 3,
      "byteOffset": 424
    },
    {
      "type": "SCALAR",
      "componentType": 5126,
      "count": 2,
      "max": [
        0.10000000149011612
      ],
      "min": [
        0
      ],
      "bufferView": 3,
      "byteOffset": 448
    },
    {
      "type": "VEC4",
      "componentType": 5126,
      "count": 2,
      "bufferView": 3,
      "byteOffset": 456
    },
    {
      "type": "SCALAR",
      "componentType": 5126,
      "count": 2,
      "max": [
        0.10000000149011612
      ],
      "min": [
        0
      ],
      "bufferView": 3,
      "byteOffset": 488
    },
    {
      "type": "VEC3",
      "componentType": 5126,
      "count": 2,
      "bufferView": 3,
      "byteOffset": 496
    },
    {
      "type": "SCALAR",
      "componentType": 5126,
      "count": 2,
      "max": [
        0.10000000149011612
      ],
      "min": [
        0
      ],
      "bufferView": 3,
      "byteOffset": 520
    },
    {
      "type": "VEC3",
      "componentType": 5126,
      "count": 2,
      "bufferView": 3,
      "byteOffset": 528
    },
    {
      "type": "SCALAR",
      "componentType": 5126,
      "count": 2,
      "max": [
        0.10000000149011612
      ],
      "min": [
        0
      ],
      "bufferView": 3,
      "byteOffset": 552
    },
    {
      "type": "VEC4",
      "componentType": 5126,
      "count": 2,
      "bufferView": 3,
      "byteOffset": 560
    },
    {
      "type": "SCALAR",
      "componentType": 5126,
      "count": 2,
      "max": [
        0.10000000149011612
      ],
      "min": [
        0
      ],
      "bufferView": 3,
      "byteOffset": 592
    },
    {
      "type": "VEC3",
      "componentType": 5126,
      "count": 2,
      "bufferView": 3,
      "byteOffset": 600
    },
    {
      "type": "SCALAR",
      "componentType": 5126,
      "count": 2,
      "max": [
        0.10000000149011612
      ],
      "min": [
        0
      ],
      "bufferView": 3,
      "byteOffset": 624
    },
    {
      "type": "VEC3",
      "componentType": 5126,
      "count": 2,
      "bufferView": 3,
      "byteOffset": 632
    },
    {
      "type": "SCALAR",
      "componentType": 5126,
      "count": 2,
      "max": [
        0.10000000149011612
      ],
      "min": [
        0
      ],
      "bufferView": 3,
      "byteOffset": 656
    },
    {
      "type": "VEC4",
      "componentType": 5126,
      "count": 2,
      "bufferView": 3,
      "byteOffset": 664
    },
    {
      "type": "SCALAR",
      "componentType": 5126,
      "count": 2,
      "max": [
        0.10000000149011612
      ],
      "min": [
        0
      ],
      "bufferView": 3,
      "byteOffset": 696
    },
    {
      "type": "VEC3",
      "componentType": 5126,
      "count": 2,
      "bufferView": 3,
      "byteOffset": 704
    },
    {
      "type": "SCALAR",
      "componentType": 5126,
      "count": 40,
      "max": [
        1.3333333730697632
      ],
      "min": [
        0
      ],
      "bufferView": 3,
      "byteOffset": 728
    },
    {
      "type": "VEC4",
      "componentType": 5126,
      "count": 40,
      "bufferView": 3,
      "byteOffset": 888
    },
    {
      "type": "SCALAR",
      "componentType": 5126,
      "count": 40,
      "max": [
        1.3333333730697632
      ],
      "min": [
        0
      ],
      "bufferView": 3,
      "byteOffset": 1528
    },
    {
      "type": "VEC4",
      "componentType": 5126,
      "count": 40,
      "bufferView": 3,
      "byteOffset": 1688
    },
    {
      "type": "SCALAR",
      "componentType": 5126,
      "count": 40,
      "max": [
        1.3333333730697632
      ],
      "min": [
        0
      ],
      "bufferView": 3,
      "byteOffset": 2328
    },
    {
      "type": "VEC4",
      "componentType": 5126,
      "count": 40,
      "bufferView": 3,
      "byteOffset": 2488
    },
    {
      "type": "SCALAR",
      "componentType": 5126,
      "count": 40,
      "max": [
        1.3333333730697632
      ],
      "min": [
        0
      ],
      "bufferView": 3,
      "byteOffset": 3128
    },
    {
      "type": "VEC4",
      "componentType": 5126,
      "count": 40,
      "bufferView": 3,
      "byteOffset": 3288
    },
    {
      "type": "SCALAR",
      "componentType": 5126,
      "count": 20,
      "max": [
        0.6666666865348816
      ],
      "min": [
        0
      ],
      "bufferView": 3,
      "byteOffset": 3928
    },
    {
      "type": "VEC3",
      "componentType": 5126,
      "count": 20,
      "bufferView": 3,
      "byteOffset": 4008
    },
    {
      "type": "SCALAR",
      "componentType": 5126,
      "count": 20,
      "max": [
        0.6666666865348816
      ],
      "min": [
        0
      ],
      "bufferView": 3,
      "byteOffset": 4248
    },
    {
      "type": "VEC4",
      "componentType": 5126,
      "count": 20,
      "bufferView": 3,
      "byteOffset": 4328
    },
    {
      "type": "SCALAR",
      "componentType": 5126,
      "count": 20,
      "max": [
        0.6666666865348816
      ],
      "min": [
        0
      ],
      "bufferView": 3,
      "byteOffset": 4648
    },
    {
      "type": "VEC4",
      "componentType": 5126,
      "count": 20,
      "bufferView": 3,
      "byteOffset": 4728
    },
    {
      "type": "SCALAR",
      "componentType": 5126,
      "count": 20,
      "max": [
        0.6666666865348816
      ],
      "min": [
        0
      ],
      "bufferView": 3,
      "byteOffset": 5048
    },
    {
      "type": "VEC4",
      "componentType": 5126,
      "count": 20,
      "bufferView": 3,
      "byteOffset": 5128
    },
    {
      "type": "SCALAR",
      "componentType": 5126,
      "count": 20,
      "max": [
        0.6666666865348816
      ],
      "min": [
        0
      ],
      "bufferView": 3,
      "byteOffset": 5448
    },
    {
      "type": "VEC4",
      "componentType": 5126,
      "count": 20,
      "bufferView": 3,
      "byteOffset": 5528
    },
    {
      "type": "SCALAR",
      "componentType": 5126,
      "count": 20,
      "max": [
        0.6666666865348816
      ],
      "min": [
        0
      ],
      "bufferView": 3,
      "byteOffset": 5848
    },
    {
      "type": "VEC4",
      "componentType": 5126,
      "count": 20,
      "bufferView": 3,
      "byteOffset": 5928
    },
    {
      "type": "SCALAR",
      "componentType": 5126,
      "count": 20,
      "max": [
        0.6666666865348816
      ],
      "min": [
        0
      ],
      "bufferView": 3,
      "byteOffset": 6248
    },
    {
      "type": "VEC4",
      "componentType": 5126,
      "count": 20,
      "bufferView": 3,
      "byteOffset": 6328
    },
    {
      "type": "SCALAR",
      "componentType": 5126,
      "count": 15,
      "max": [
        0.5
      ],
      "min": [
        0
      ],
      "bufferView": 3,
      "byteOffset": 6648
    },
    {
      "type": "VEC3",
      "componentType": 5126,
      "count": 15,
      "bufferView": 3,
      "byteOffset": 6708
    },
    {
      "type": "SCALAR",
      "componentType": 5126,
      "count": 15,
      "max": [
        0.5
      ],
      "min": [
        0
      ],
      "bufferView": 3,
      "byteOffset": 6888
    },
    {
      "type": "VEC4",
      "componentType": 5126,
      "count": 15,
      "bufferView": 3,
      "byteOffset": 6948
    },
    {
      "type": "SCALAR",
      "componentType": 5126,
      "count": 15,
      "max": [
        0.5
      ],
      "min": [
        0
      ],
      "bufferView": 3,
      "byteOffset": 7188
    },
    {
      "type": "VEC4",
      "componentType": 5126,
      "count": 15,
      "bufferView": 3,
      "byteOffset": 7248
    },
    {
      "type": "SCALAR",
      "componentType": 5126,
      "count": 15,
      "max": [
        0.5
      ],
      "min": [
        0
      ],
      "bufferView": 3,
      "byteOffset": 7488
    },
    {
      "type": "VEC4",
      "componentType": 5126,
      "count": 15,
      "bufferView": 3,
      "byteOffset": 7548
    },
    {
      "type": "SCALAR",
      "componentType": 5126,
      "count": 15,
      "max": [
        0.5
      ],
      "min": [
        0
      ],
      "bufferView": 3,
      "byteOffset": 7788
    },
    {
      "type": "VEC4",
      "componentType": 5126,
      "count": 15,
      "bufferView": 3,
      "byteOffset": 7848
    },
    {
      "type": "SCALAR",
      "componentType": 5126,
      "count": 15,
      "max": [
        0.5
      ],
      "min": [
        0
      ],
      "bufferView": 3,
      "byteOffset": 8088
    },
    {
      "type": "VEC4",
      "componentType": 5126,
      "count": 15,
      "bufferView": 3,
      "byteOffset": 8148
    },
    {
      "type": "SCALAR",
      "componentType": 5126,
      "count": 15,
      "max": [
        0.5
      ],
      "min": [
        0
      ],
      "bufferView": 3,
      "byteOffset": 8388
    },
    {
      "type": "VEC4",
      "componentType": 5126,
      "count": 15,
      "bufferView": 3,
      "byteOffset": 8448
    },
    {
      "type": "SCALAR",
      "componentType": 5126,
      "count": 2,
      "max": [
        0.5
      ],
      "min": [
        0
      ],
      "bufferView": 3,
      "byteOffset": 8688
    },
    {
      "type": "VEC3",
      "componentType": 5126,
      "count": 2,
      "bufferView": 3,
      "byteOffset": 8696
    },
    {
      "type": "SCALAR",
      "componentType": 5126,
      "count": 15,
      "max": [
        0.5
      ],
      "min": [
        0
      ],
      "bufferView": 3,
      "byteOffset": 8720
    },
    {
      "type": "VEC4",
      "componentType": 5126,
      "count": 15,
      "bufferView": 3,
      "byteOffset": 8780
    },
    {
      "type": "SCALAR",
      "componentType": 5126,
      "count": 2,
      "max": [
        0.5
      ],
      "min": [
        0
      ],
      "bufferView": 3,
      "byteOffset": 9020
    },
    {
      "type": "VEC3",
      "componentType": 5126,
      "count": 2,
      "bufferView": 3,
      "byteOffset": 9028
    },
    {
      "type": "SCALAR",
      "componentType": 5126,
      "count": 15,
      "max": [
        0.5
      ],
      "min": [
        0
      ],
      "bufferView": 3,
      "byteOffset": 9052
    },
    {
      "type": "VEC4",
      "componentType": 5126,
      "count": 15,
      "bufferView": 3,
      "byteOffset": 9112
    },
    {
      "type": "SCALAR",
      "componentType": 5126,
      "count": 15,
      "max": [
        0.5
      ],
      "min": [
        0
      ],
      "bufferView": 3,
      "byteOffset": 9352
    },
    {
      "type": "VEC4",
      "componentType": 5126,
      "count": 15,
      "bufferView": 3,
      "byteOffset": 9412
    },
    {
      "type": "SCALAR",
      "componentType": 5126,
      "count": 15,
      "max": [
        0.5
      ],
      "min": [
        0
      ],
      "bufferView": 3,
      "byteOffset": 9652
    },
    {
      "type": "VEC4",
      "componentType": 5126,
      "count": 15,
      "bufferView": 3,
      "byteOffset": 9712
    },
    {
      "type": "SCALAR",
      "componentType": 5126,
      "count": 15,
      "max": [
        0.5
      ],
      "min": [
        0
      ],
      "bufferView": 3,
      "byteOffset": 9952
    },
    {
      "type": "VEC4",
      "componentType": 5126,
      "count": 15,
      "bufferView": 3,
      "byteOffset": 10012
    },
    {
      "type": "SCALAR",
      "componentType": 5126,
      "count": 10,
      "max": [
        0.3333333432674408
      ],
      "min": [
        0
      ],
      "bufferView": 3,
      "byteOffset": 10252
    },
    {
      "type": "VEC4",
      "componentType": 5126,
      "count": 10,
      "bufferView": 3,
      "byteOffset": 10292
    },
    {
      "type": "SCALAR",
      "componentType": 5126,
      "count": 10,
      "max": [
        0.3333333432674408
      ],
      "min": [
        0
      ],
      "bufferView": 3,
      "byteOffset": 10452
    },
    {
      "type": "VEC4",
      "componentType": 5126,
      "count": 10,
      "bufferView": 3,
      "byteOffset": 10492
    },
    {
      "type": "SCALAR",
      "componentType": 5126,
      "count": 10,
      "max": [
        0.3333333432674408
      ],
      "min": [
        0
      ],
      "bufferView": 3,
      "byteOffset": 10652
    },
    {
      "type": "VEC4",
      "componentType": 5126,
      "count": 10,
      "bufferView": 3,
      "byteOffset": 10692
    },
    {
      "type": "SCALAR",
      "componentType": 5126,
      "count": 10,
      "max": [
        0.3333333432674408
      ],
      "min": [
        0
      ],
      "bufferView": 3,
      "byteOffset": 10852
    },
    {
      "type": "VEC4",
      "componentType": 5126,
      "count": 10,
      "bufferView": 3,
      "byteOffset": 10892
    },
    {
      "type": "SCALAR",
      "componentType": 5126,
      "count": 10,
      "max": [
        0.3333333432674408
      ],
      "min": [
        0
      ],
      "bufferView": 3,
      "byteOffset": 11052
    },
    {
      "type": "VEC4",
      "componentType": 5126,
      "count": 10,
      "bufferView": 3,
      "byteOffset": 11092
    },
    {
      "type": "SCALAR",
      "componentType": 5126,
      "count": 2,
      "max": [
        0.1666666716337204
      ],
      "min": [
        0
      ],
      "bufferView": 3,
      "byteOffset": 11252
    },
    {
      "type": "VEC3",
      "componentType": 5126,
      "count": 2,
      "bufferView": 3,
      "byteOffset": 11260
    },
    {
      "type": "SCALAR",
      "componentType": 5126,
      "count": 2,
      "max": [
        0.1666666716337204
      ],
      "min": [
        0
      ],
      "bufferView": 3,
      "byteOffset": 11284
    },
    {
      "type": "VEC4",
      "componentType": 5126,
      "count": 2,
      "bufferView": 3,
      "byteOffset": 11292
    },
    {
      "type": "SCALAR",
      "componentType": 5126,
      "count": 2,
      "max": [
        0.1666666716337204
      ],
      "min": [
        0
      ],
      "bufferView": 3,
      "byteOffset": 11324
    },
    {
      "type": "VEC3",
      "componentType": 5126,
      "count": 2,
      "bufferView": 3,
      "byteOffset": 11332
    },
    {
      "type": "SCALAR",
      "componentType": 5126,
      "count": 2,
      "max": [
        0.1666666716337204
      ],
      "min": [
        0
      ],
      "bufferView": 3,
      "byteOffset": 11356
    },
    {
      "type": "VEC4",
      "componentType": 5126,
      "count": 2,
      "bufferView": 3,
      "byteOffset": 11364
    },
    {
      "type": "SCALAR",
      "componentType": 5126,
      "count": 2,
      "max": [
        0.1666666716337204
      ],
      "min": [
        0
      ],
      "bufferView": 3,
      "byteOffset": 11396
    },
    {
      "type": "VEC3",
      "componentType": 5126,
      "count": 2,
      "bufferView": 3,
      "byteOffset": 11404
    },
    {
      "type": "SCALAR",
      "componentType": 5126,
      "count": 2,
      "max": [
        0.1666666716337204
      ],
      "min": [
        0
      ],
      "bufferView": 3,
      "byteOffset": 11428
    },
    {
      "type": "VEC4",
      "componentType": 5126,
      "count": 2,
      "bufferView": 3,
      "byteOffset": 11436
    },
    {
      "type": "SCALAR",
      "componentType": 5126,
      "count": 2,
      "max": [
        0.1666666716337204
      ],
      "min": [
        0
      ],
      "bufferView": 3,
      "byteOffset": 11468
    },
    {
      "type": "VEC4",
      "componentType": 5126,
      "count": 2,
      "bufferView": 3,
      "byteOffset": 11476
    },
    {
      "type": "SCALAR",
      "componentType": 5126,
      "count": 2,
      "max": [
        0.1666666716337204
      ],
      "min": [
        0
      ],
      "bufferView": 3,
      "byteOffset": 11508
    },
    {
      "type": "VEC4",
      "componentType": 5126,
      "count": 2,
      "bufferView": 3,
      "byteOffset": 11516
    },
    {
      "type": "SCALAR",
      "componentType": 5126,
      "count": 2,
      "max": [
        0.1666666716337204
      ],
      "min": [
        0
      ],
      "bufferView": 3,
      "byteOffset": 11548
    },
    {
      "type": "VEC3",
      "componentType": 5126,
      "count": 2,
      "bufferView": 3,
      "byteOffset": 11556
    },
    {
      "type": "SCALAR",
      "componentType": 5126,
      "count": 2,
      "max": [
        0.1666666716337204
      ],
      "min": [
        0
      ],
      "bufferView": 3,
      "byteOffset": 11580
    },
    {
      "type": "VEC4",
      "componentType": 5126,
      "count": 2,
      "bufferView": 3,
      "byteOffset": 11588
    },
    {
      "type": "SCALAR",
      "componentType": 5126,
      "count": 2,
      "max": [
        0.1666666716337204
      ],
      "min": [
        0
      ],
      "bufferView": 3,
      "byteOffset": 11620
    },
    {
      "type": "VEC4",
      "componentType": 5126,
      "count": 2,
      "bufferView": 3,
      "byteOffset": 11628
    },
    {
      "type": "SCALAR",
      "componentType": 5126,
      "count": 2,
      "max": [
        0.1666666716337204
      ],
      "min": [
        0
      ],
      "bufferView": 3,
      "byteOffset": 11660
    },
    {
      "type": "VEC4",
      "componentType": 5126,
      "count": 2,
      "bufferView": 3,
      "byteOffset": 11668
    },
    {
      "type": "SCALAR",
      "componentType": 5126,
      "count": 2,
      "max": [
        0.1666666716337204
      ],
      "min": [
        0
      ],
      "bufferView": 3,
      "byteOffset": 11700
    },
    {
      "type": "VEC4",
      "componentType": 5126,
      "count": 2,
      "bufferView": 3,
      "byteOffset": 11708
    },
    {
      "type": "SCALAR",
      "componentType": 5126,
      "count": 2,
      "max": [
        0.1666666716337204
      ],
      "min": [
        0
      ],
      "bufferView": 3,
      "byteOffset": 11740
    },
    {
      "type": "VEC3",
      "componentType": 5126,
      "count": 2,
      "bufferView": 3,
      "byteOffset": 11748
    },
    {
      "type": "SCALAR",
      "componentType": 5126,
      "count": 2,
      "max": [
        0.1666666716337204
      ],
      "min": [
        0
      ],
      "bufferView": 3,
      "byteOffset": 11772
    },
    {
      "type": "VEC4",
      "componentType": 5126,
      "count": 2,
      "bufferView": 3,
      "byteOffset": 11780
    },
    {
      "type": "SCALAR",
      "componentType": 5126,
      "count": 2,
      "max": [
        0.1666666716337204
      ],
      "min": [
        0
      ],
      "bufferView": 3,
      "byteOffset": 11812
    },
    {
      "type": "VEC4",
      "componentType": 5126,
      "count": 2,
      "bufferView": 3,
      "byteOffset": 11820
    },
    {
      "type": "SCALAR",
      "componentType": 5126,
      "count": 2,
      "max": [
        0.1666666716337204
      ],
      "min": [
        0
      ],
      "bufferView": 3,
      "byteOffset": 11852
    },
    {
      "type": "VEC4",
      "componentType": 5126,
      "count": 2,
      "bufferView": 3,
      "byteOffset": 11860
    },
    {
      "type": "SCALAR",
      "componentType": 5126,
      "count": 2,
      "max": [
        0.1666666716337204
      ],
      "min": [
        0
      ],
      "bufferView": 3,
      "byteOffset": 11892
    },
    {
      "type": "VEC4",
      "componentType": 5126,
      "count": 2,
      "bufferView": 3,
      "byteOffset": 11900
    },
    {
      "type": "SCALAR",
      "componentType": 5126,
      "count": 10,
      "max": [
        0.3333333432674408
      ],
      "min": [
        0
      ],
      "bufferView": 3,
      "byteOffset": 11932
    },
    {
      "type": "VEC3",
      "componentType": 5126,
      "count": 10,
      "bufferView": 3,
      "byteOffset": 11972
    },
    {
      "type": "SCALAR",
      "componentType": 5126,
      "count": 9,
      "max": [
        0.3333333432674408
      ],
      "min": [
        0
      ],
      "bufferView": 3,
      "byteOffset": 12092
    },
    {
      "type": "VEC4",
      "componentType": 5126,
      "count": 9,
      "bufferView": 3,
      "byteOffset": 12128
    },
    {
      "type": "SCALAR",
      "componentType": 5126,
      "count": 10,
      "max": [
        0.3333333432674408
      ],
      "min": [
        0
      ],
      "bufferView": 3,
      "byteOffset": 12272
    },
    {
      "type": "VEC4",
      "componentType": 5126,
      "count": 10,
      "bufferView": 3,
      "byteOffset": 12312
    },
    {
      "type": "SCALAR",
      "componentType": 5126,
      "count": 10,
      "max": [
        0.3333333432674408
      ],
      "min": [
        0
      ],
      "bufferView": 3,
      "byteOffset": 12472
    },
    {
      "type": "VEC4",
      "componentType": 5126,
      "count": 10,
      "bufferView": 3,
      "byteOffset": 12512
    },
    {
      "type": "SCALAR",
      "componentType": 5126,
      "count": 10,
      "max": [
        0.3333333432674408
      ],
      "min": [
        0
      ],
      "bufferView": 3,
      "byteOffset": 12672
    },
    {
      "type": "VEC4",
      "componentType": 5126,
      "count": 10,
      "bufferView": 3,
      "byteOffset": 12712
    },
    {
      "type": "SCALAR",
      "componentType": 5126,
      "count": 10,
      "max": [
        0.3333333432674408
      ],
      "min": [
        0
      ],
      "bufferView": 3,
      "byteOffset": 12872
    },
    {
      "type": "VEC4",
      "componentType": 5126,
      "count": 10,
      "bufferView": 3,
      "byteOffset": 12912
    },
    {
      "type": "SCALAR",
      "componentType": 5126,
      "count": 10,
      "max": [
        0.3333333432674408
      ],
      "min": [
        0
      ],
      "bufferView": 3,
      "byteOffset": 13072
    },
    {
      "type": "VEC4",
      "componentType": 5126,
      "count": 10,
      "bufferView": 3,
      "byteOffset": 13112
    },
    {
      "type": "SCALAR",
      "componentType": 5126,
      "count": 10,
      "max": [
        0.3333333432674408
      ],
      "min": [
        0
      ],
      "bufferView": 3,
      "byteOffset": 13272
    },
    {
      "type": "VEC4",
      "componentType": 5126,
      "count": 10,
      "bufferView": 3,
      "byteOffset": 13312
    },
    {
      "type": "SCALAR",
      "componentType": 5126,
      "count": 10,
      "max": [
        0.3333333432674408
      ],
      "min": [
        0
      ],
      "bufferView": 3,
      "byteOffset": 13472
    },
    {
      "type": "VEC4",
      "componentType": 5126,
      "count": 10,
      "bufferView": 3,
      "byteOffset": 13512
    },
    {
      "type": "SCALAR",
      "componentType": 5126,
      "count": 10,
      "max": [
        0.3333333432674408
      ],
      "min": [
        0
      ],
      "bufferView": 3,
      "byteOffset": 13672
    },
    {
      "type": "VEC4",
      "componentType": 5126,
      "count": 10,
      "bufferView": 3,
      "byteOffset": 13712
    },
    {
      "type": "SCALAR",
      "componentType": 5126,
      "count": 10,
      "max": [
        0.3333333432674408
      ],
      "min": [
        0
      ],
      "bufferView": 3,
      "byteOffset": 13872
    },
    {
      "type": "VEC4",
      "componentType": 5126,
      "count": 10,
      "bufferView": 3,
      "byteOffset": 13912
    },
    {
      "type": "SCALAR",
      "componentType": 5126,
      "count": 10,
      "max": [
        0.3333333432674408
      ],
      "min": [
        0
      ],
      "bufferView": 3,
      "byteOffset": 14072
    },
    {
      "type": "VEC4",
      "componentType": 5126,
      "count": 10,
      "bufferView": 3,
      "byteOffset": 14112
    },
    {
      "type": "SCALAR",
      "componentType": 5126,
      "count": 20,
      "max": [
        0.6666666865348816
      ],
      "min": [
        0
      ],
      "bufferView": 3,
      "byteOffset": 14272
    },
    {
      "type": "VEC4",
      "componentType": 5126,
      "count": 20,
      "bufferView": 3,
      "byteOffset": 14352
    },
    {
      "type": "SCALAR",
      "componentType": 5126,
      "count": 20,
      "max": [
        0.6666666865348816
      ],
      "min": [
        0
      ],
      "bufferView": 3,
      "byteOffset": 14672
    },
    {
      "type": "VEC4",
      "componentType": 5126,
      "count": 20,
      "bufferView": 3,
      "byteOffset": 14752
    },
    {
      "type": "SCALAR",
      "componentType": 5126,
      "count": 20,
      "max": [
        0.6666666865348816
      ],
      "min": [
        0
      ],
      "bufferView": 3,
      "byteOffset": 15072
    },
    {
      "type": "VEC4",
      "componentType": 5126,
      "count": 20,
      "bufferView": 3,
      "byteOffset": 15152
    },
    {
      "type": "SCALAR",
      "componentType": 5126,
      "count": 20,
      "max": [
        0.6666666865348816
      ],
      "min": [
        0
      ],
      "bufferView": 3,
      "byteOffset": 15472
    },
    {
      "type": "VEC4",
      "componentType": 5126,
      "count": 20,
      "bufferView": 3,
      "byteOffset": 15552
    },
    {
      "type": "SCALAR",
      "componentType": 5126,
      "count": 20,
      "max": [
        0.6666666865348816
      ],
      "min": [
        0
      ],
      "bufferView": 3,
      "byteOffset": 15872
    },
    {
      "type": "VEC4",
      "componentType": 5126,
      "count": 20,
      "bufferView": 3,
      "byteOffset": 15952
    },
    {
      "type": "SCALAR",
      "componentType": 5126,
      "count": 20,
      "max": [
        0.6666666865348816
      ],
      "min": [
        0
      ],
      "bufferView": 3,
      "byteOffset": 16272
    },
    {
      "type": "VEC4",
      "componentType": 5126,
      "count": 20,
      "bufferView": 3,
      "byteOffset": 16352
    },
    {
      "type": "SCALAR",
      "componentType": 5126,
      "count": 20,
      "max": [
        0.6666666865348816
      ],
      "min": [
        0
      ],
      "bufferView": 3,
      "byteOffset": 16672
    },
    {
      "type": "VEC4",
      "componentType": 5126,
      "count": 20,
      "bufferView": 3,
      "byteOffset": 16752
    },
    {
      "type": "SCALAR",
      "componentType": 5126,
      "count": 20,
      "max": [
        0.6666666865348816
      ],
      "min": [
        0
      ],
      "bufferView": 3,
      "byteOffset": 17072
    },
    {
      "type": "VEC4",
      "componentType": 5126,
      "count": 20,
      "bufferView": 3,
      "byteOffset": 17152
    },
    {
      "type": "SCALAR",
      "componentType": 5126,
      "count": 2,
      "max": [
        0.1666666716337204
      ],
      "min": [
        0
      ],
      "bufferView": 3,
      "byteOffset": 17472
    },
    {
      "type": "VEC4",
      "componentType": 5126,
      "count": 2,
      "bufferView": 3,
      "byteOffset": 17480
    },
    {
      "type": "SCALAR",
      "componentType": 5126,
      "count": 2,
      "max": [
        0.1666666716337204
      ],
      "min": [
        0
      ],
      "bufferView": 3,
      "byteOffset": 17512
    },
    {
      "type": "VEC4",
      "componentType": 5126,
      "count": 2,
      "bufferView": 3,
      "byteOffset": 17520
    },
    {
      "type": "SCALAR",
      "componentType": 5126,
      "count": 2,
      "max": [
        0.1666666716337204
      ],
      "min": [
        0
      ],
      "bufferView": 3,
      "byteOffset": 17552
    },
    {
      "type": "VEC4",
      "componentType": 5126,
      "count": 2,
      "bufferView": 3,
      "byteOffset": 17560
    },
    {
      "type": "SCALAR",
      "componentType": 5126,
      "count": 2,
      "max": [
        0.1666666716337204
      ],
      "min": [
        0
      ],
      "bufferView": 3,
      "byteOffset": 17592
    },
    {
      "type": "VEC4",
      "componentType": 5126,
      "count": 2,
      "bufferView": 3,
      "byteOffset": 17600
    },
    {
      "type": "SCALAR",
      "componentType": 5126,
      "count": 2,
      "max": [
        0.1666666716337204
      ],
      "min": [
        0
      ],
      "bufferView": 3,
      "byteOffset": 17632
    },
    {
      "type": "VEC4",
      "componentType": 5126,
      "count": 2,
      "bufferView": 3,
      "byteOffset": 17640
    },
    {
      "type": "SCALAR",
      "componentType": 5126,
      "count": 2,
      "max": [
        0.1666666716337204
      ],
      "min": [
        0
      ],
      "bufferView": 3,
      "byteOffset": 17672
    },
    {
      "type": "VEC4",
      "componentType": 5126,
      "count": 2,
      "bufferView": 3,
      "byteOffset": 17680
    },
    {
      "type": "SCALAR",
      "componentType": 5126,
      "count": 6,
      "max": [
        0.20000000298023224
      ],
      "min": [
        0
      ],
      "bufferView": 3,
      "byteOffset": 17712
    },
    {
      "type": "VEC4",
      "componentType": 5126,
      "count": 6,
      "bufferView": 3,
      "byteOffset": 17736
    },
    {
      "type": "SCALAR",
      "componentType": 5126,
      "count": 6,
      "max": [
        0.20000000298023224
      ],
      "min": [
        0
      ],
      "bufferView": 3,
      "byteOffset": 17832
    },
    {
      "type": "VEC4",
      "componentType": 5126,
      "count": 6,
      "bufferView": 3,
      "byteOffset": 17856
    },
    {
      "type": "SCALAR",
      "componentType": 5126,
      "count": 2,
      "max": [
        0.20000000298023224
      ],
      "min": [
        0
      ],
      "bufferView": 3,
      "byteOffset": 17952
    },
    {
      "type": "VEC4",
      "componentType": 5126,
      "count": 2,
      "bufferView": 3,
      "byteOffset": 17960
    },
    {
      "type": "SCALAR",
      "componentType": 5126,
      "count": 6,
      "max": [
        0.20000000298023224
      ],
      "min": [
        0
      ],
      "bufferView": 3,
      "byteOffset": 17992
    },
    {
      "type": "VEC4",
      "componentType": 5126,
      "count": 6,
      "bufferView": 3,
      "byteOffset": 18016
    },
    {
      "type": "SCALAR",
      "componentType": 5126,
      "count": 6,
      "max": [
        0.20000000298023224
      ],
      "min": [
        0
      ],
      "bufferView": 3,
      "byteOffset": 18112
    },
    {
      "type": "VEC4",
      "componentType": 5126,
      "count": 6,
      "bufferView": 3,
      "byteOffset": 18136
    },
    {
      "type": "SCALAR",
      "componentType": 5126,
      "count": 6,
      "max": [
        0.20000000298023224
      ],
      "min": [
        0
      ],
      "bufferView": 3,
      "byteOffset": 18232
    },
    {
      "type": "VEC4",
      "componentType": 5126,
      "count": 6,
      "bufferView": 3,
      "byteOffset": 18256
    },
    {
      "type": "SCALAR",
      "componentType": 5126,
      "count": 6,
      "max": [
        0.20000000298023224
      ],
      "min": [
        0
      ],
      "bufferView": 3,
      "byteOffset": 18352
    },
    {
      "type": "VEC4",
      "componentType": 5126,
      "count": 6,
      "bufferView": 3,
      "byteOffset": 18376
    },
    {
      "type": "SCALAR",
      "componentType": 5126,
      "count": 2,
      "max": [
        0.20000000298023224
      ],
      "min": [
        0
      ],
      "bufferView": 3,
      "byteOffset": 18472
    },
    {
      "type": "VEC4",
      "componentType": 5126,
      "count": 2,
      "bufferView": 3,
      "byteOffset": 18480
    },
    {
      "type": "SCALAR",
      "componentType": 5126,
      "count": 6,
      "max": [
        0.20000000298023224
      ],
      "min": [
        0
      ],
      "bufferView": 3,
      "byteOffset": 18512
    },
    {
      "type": "VEC4",
      "componentType": 5126,
      "count": 6,
      "bufferView": 3,
      "byteOffset": 18536
    },
    {
      "type": "SCALAR",
      "componentType": 5126,
      "count": 6,
      "max": [
        0.20000000298023224
      ],
      "min": [
        0
      ],
      "bufferView": 3,
      "byteOffset": 18632
    },
    {
      "type": "VEC4",
      "componentType": 5126,
      "count": 6,
      "bufferView": 3,
      "byteOffset": 18656
    },
    {
      "type": "SCALAR",
      "componentType": 5126,
      "count": 6,
      "max": [
        0.20000000298023224
      ],
      "min": [
        0
      ],
      "bufferView": 3,
      "byteOffset": 18752
    },
    {
      "type": "VEC4",
      "componentType": 5126,
      "count": 6,
      "bufferView": 3,
      "byteOffset": 18776
    },
    {
      "type": "SCALAR",
      "componentType": 5126,
      "count": 6,
      "max": [
        0.20000000298023224
      ],
      "min": [
        0
      ],
      "bufferView": 3,
      "byteOffset": 18872
    },
    {
      "type": "VEC4",
      "componentType": 5126,
      "count": 6,
      "bufferView": 3,
      "byteOffset": 18896
    },
    {
      "type": "SCALAR",
      "componentType": 5126,
      "count": 13,
      "max": [
        0.4166666567325592
      ],
      "min": [
        0
      ],
      "bufferView": 3,
      "byteOffset": 18992
    },
    {
      "type": "VEC3",
      "componentType": 5126,
      "count": 13,
      "bufferView": 3,
      "byteOffset": 19044
    },
    {
      "type": "SCALAR",
      "componentType": 5126,
      "count": 10,
      "max": [
        0.4166666567325592
      ],
      "min": [
        0
      ],
      "bufferView": 3,
      "byteOffset": 19200
    },
    {
      "type": "VEC4",
      "componentType": 5126,
      "count": 10,
      "bufferView": 3,
      "byteOffset": 19240
    },
    {
      "type": "SCALAR",
      "componentType": 5126,
      "count": 13,
      "max": [
        0.4166666567325592
      ],
      "min": [
        0
      ],
      "bufferView": 3,
      "byteOffset": 19400
    },
    {
      "type": "VEC4",
      "componentType": 5126,
      "count": 13,
      "bufferView": 3,
      "byteOffset": 19452
    },
    {
      "type": "SCALAR",
      "componentType": 5126,
      "count": 13,
      "max": [
        0.4166666567325592
      ],
      "min": [
        0
      ],
      "bufferView": 3,
      "byteOffset": 19660
    },
    {
      "type": "VEC4",
      "componentType": 5126,
      "count": 13,
      "bufferView": 3,
      "byteOffset": 19712
    },
    {
      "type": "SCALAR",
      "componentType": 5126,
      "count": 13,
      "max": [
        0.4166666567325592
      ],
      "min": [
        0
      ],
      "bufferView": 3,
      "byteOffset": 19920
    },
    {
      "type": "VEC4",
      "componentType": 5126,
      "count": 13,
      "bufferView": 3,
      "byteOffset": 19972
    },
    {
      "type": "SCALAR",
      "componentType": 5126,
      "count": 13,
      "max": [
        0.4166666567325592
      ],
      "min": [
        0
      ],
      "bufferView": 3,
      "byteOffset": 20180
    },
    {
      "type": "VEC4",
      "componentType": 5126,
      "count": 13,
      "bufferView": 3,
      "byteOffset": 20232
    },
    {
      "type": "SCALAR",
      "componentType": 5126,
      "count": 13,
      "max": [
        0.4166666567325592
      ],
      "min": [
        0
      ],
      "bufferView": 3,
      "byteOffset": 20440
    },
    {
      "type": "VEC4",
      "componentType": 5126,
      "count": 13,
      "bufferView": 3,
      "byteOffset": 20492
    },
    {
      "type": "SCALAR",
      "componentType": 5126,
      "count": 13,
      "max": [
        0.4166666567325592
      ],
      "min": [
        0
      ],
      "bufferView": 3,
      "byteOffset": 20700
    },
    {
      "type": "VEC3",
      "componentType": 5126,
      "count": 13,
      "bufferView": 3,
      "byteOffset": 20752
    },
    {
      "type": "SCALAR",
      "componentType": 5126,
      "count": 13,
      "max": [
        0.4166666567325592
      ],
      "min": [
        0
      ],
      "bufferView": 3,
      "byteOffset": 20908
    },
    {
      "type": "VEC4",
      "componentType": 5126,
      "count": 13,
      "bufferView": 3,
      "byteOffset": 20960
    },
    {
      "type": "SCALAR",
      "componentType": 5126,
      "count": 13,
      "max": [
        0.4166666567325592
      ],
      "min": [
        0
      ],
      "bufferView": 3,
      "byteOffset": 21168
    },
    {
      "type": "VEC4",
      "componentType": 5126,
      "count": 13,
      "bufferView": 3,
      "byteOffset": 21220
    },
    {
      "type": "SCALAR",
      "componentType": 5126,
      "count": 13,
      "max": [
        0.4166666567325592
      ],
      "min": [
        0
      ],
      "bufferView": 3,
      "byteOffset": 21428
    },
    {
      "type": "VEC4",
      "componentType": 5126,
      "count": 13,
      "bufferView": 3,
      "byteOffset": 21480
    },
    {
      "type": "SCALAR",
      "componentType": 5126,
      "count": 13,
      "max": [
        0.4166666567325592
      ],
      "min": [
        0
      ],
      "bufferView": 3,
      "byteOffset": 21688
    },
    {
      "type": "VEC4",
      "componentType": 5126,
      "count": 13,
      "bufferView": 3,
      "byteOffset": 21740
    },
    {
      "type": "SCALAR",
      "componentType": 5126,
      "count": 10,
      "max": [
        0.4166666567325592
      ],
      "min": [
        0
      ],
      "bufferView": 3,
      "byteOffset": 21948
    },
    {
      "type": "VEC4",
      "componentType": 5126,
      "count": 10,
      "bufferView": 3,
      "byteOffset": 21988
    },
    {
      "type": "SCALAR",
      "componentType": 5126,
      "count": 13,
      "max": [
        0.4166666567325592
      ],
      "min": [
        0
      ],
      "bufferView": 3,
      "byteOffset": 22148
    },
    {
      "type": "VEC4",
      "componentType": 5126,
      "count": 13,
      "bufferView": 3,
      "byteOffset": 22200
    },
    {
      "type": "SCALAR",
      "componentType": 5126,
      "count": 16,
      "max": [
        0.5333333611488342
      ],
      "min": [
        0
      ],
      "bufferView": 3,
      "byteOffset": 22408
    },
    {
      "type": "VEC4",
      "componentType": 5126,
      "count": 16,
      "bufferView": 3,
      "byteOffset": 22472
    },
    {
      "type": "SCALAR",
      "componentType": 5126,
      "count": 16,
      "max": [
        0.5333333611488342
      ],
      "min": [
        0
      ],
      "bufferView": 3,
      "byteOffset": 22728
    },
    {
      "type": "VEC4",
      "componentType": 5126,
      "count": 16,
      "bufferView": 3,
      "byteOffset": 22792
    },
    {
      "type": "SCALAR",
      "componentType": 5126,
      "count": 16,
      "max": [
        0.5333333611488342
      ],
      "min": [
        0
      ],
      "bufferView": 3,
      "byteOffset": 23048
    },
    {
      "type": "VEC3",
      "componentType": 5126,
      "count": 16,
      "bufferView": 3,
      "byteOffset": 23112
    },
    {
      "type": "SCALAR",
      "componentType": 5126,
      "count": 16,
      "max": [
        0.5333333611488342
      ],
      "min": [
        0
      ],
      "bufferView": 3,
      "byteOffset": 23304
    },
    {
      "type": "VEC4",
      "componentType": 5126,
      "count": 16,
      "bufferView": 3,
      "byteOffset": 23368
    },
    {
      "type": "SCALAR",
      "componentType": 5126,
      "count": 16,
      "max": [
        0.5333333611488342
      ],
      "min": [
        0
      ],
      "bufferView": 3,
      "byteOffset": 23624
    },
    {
      "type": "VEC4",
      "componentType": 5126,
      "count": 16,
      "bufferView": 3,
      "byteOffset": 23688
    },
    {
      "type": "SCALAR",
      "componentType": 5126,
      "count": 16,
      "max": [
        0.5333333611488342
      ],
      "min": [
        0
      ],
      "bufferView": 3,
      "byteOffset": 23944
    },
    {
      "type": "VEC4",
      "componentType": 5126,
      "count": 16,
      "bufferView": 3,
      "byteOffset": 24008
    },
    {
      "type": "SCALAR",
      "componentType": 5126,
      "count": 16,
      "max": [
        0.5333333611488342
      ],
      "min": [
        0
      ],
      "bufferView": 3,
      "byteOffset": 24264
    },
    {
      "type": "VEC4",
      "componentType": 5126,
      "count": 16,
      "bufferView": 3,
      "byteOffset": 24328
    },
    {
      "type": "SCALAR",
      "componentType": 5126,
      "count": 16,
      "max": [
        0.5333333611488342
      ],
      "min": [
        0
      ],
      "bufferView": 3,
      "byteOffset": 24584
    },
    {
      "type": "VEC4",
      "componentType": 5126,
      "count": 16,
      "bufferView": 3,
      "byteOffset": 24648
    },
    {
      "type": "SCALAR",
      "componentType": 5126,
      "count": 16,
      "max": [
        0.5333333611488342
      ],
      "min": [
        0
      ],
      "bufferView": 3,
      "byteOffset": 24904
    },
    {
      "type": "VEC3",
      "componentType": 5126,
      "count": 16,
      "bufferView": 3,
      "byteOffset": 24968
    },
    {
      "type": "SCALAR",
      "componentType": 5126,
      "count": 16,
      "max": [
        0.5333333611488342
      ],
      "min": [
        0
      ],
      "bufferView": 3,
      "byteOffset": 25160
    },
    {
      "type": "VEC4",
      "componentType": 5126,
      "count": 16,
      "bufferView": 3,
      "byteOffset": 25224
    },
    {
      "type": "SCALAR",
      "componentType": 5126,
      "count": 16,
      "max": [
        0.5333333611488342
      ],
      "min": [
        0
      ],
      "bufferView": 3,
      "byteOffset": 25480
    },
    {
      "type": "VEC4",
      "componentType": 5126,
      "count": 16,
      "bufferView": 3,
      "byteOffset": 25544
    },
    {
      "type": "SCALAR",
      "componentType": 5126,
      "count": 16,
      "max": [
        0.5333333611488342
      ],
      "min": [
        0
      ],
      "bufferView": 3,
      "byteOffset": 25800
    },
    {
      "type": "VEC4",
      "componentType": 5126,
      "count": 16,
      "bufferView": 3,
      "byteOffset": 25864
    },
    {
      "type": "SCALAR",
      "componentType": 5126,
      "count": 16,
      "max": [
        0.5333333611488342
      ],
      "min": [
        0
      ],
      "bufferView": 3,
      "byteOffset": 26120
    },
    {
      "type": "VEC4",
      "componentType": 5126,
      "count": 16,
      "bufferView": 3,
      "byteOffset": 26184
    },
    {
      "type": "SCALAR",
      "componentType": 5126,
      "count": 16,
      "max": [
        0.5333333611488342
      ],
      "min": [
        0
      ],
      "bufferView": 3,
      "byteOffset": 26440
    },
    {
      "type": "VEC4",
      "componentType": 5126,
      "count": 16,
      "bufferView": 3,
      "byteOffset": 26504
    },
    {
      "type": "SCALAR",
      "componentType": 5126,
      "count": 10,
      "max": [
        0.6666666865348816
      ],
      "min": [
        0
      ],
      "bufferView": 3,
      "byteOffset": 26760
    },
    {
      "type": "VEC4",
      "componentType": 5126,
      "count": 10,
      "bufferView": 3,
      "byteOffset": 26800
    },
    {
      "type": "SCALAR",
      "componentType": 5126,
      "count": 13,
      "max": [
        0.6666666865348816
      ],
      "min": [
        0
      ],
      "bufferView": 3,
      "byteOffset": 26960
    },
    {
      "type": "VEC4",
      "componentType": 5126,
      "count": 13,
      "bufferView": 3,
      "byteOffset": 27012
    },
    {
      "type": "SCALAR",
      "componentType": 5126,
      "count": 14,
      "max": [
        0.6666666865348816
      ],
      "min": [
        0
      ],
      "bufferView": 3,
      "byteOffset": 27220
    },
    {
      "type": "VEC4",
      "componentType": 5126,
      "count": 14,
      "bufferView": 3,
      "byteOffset": 27276
    },
    {
      "type": "SCALAR",
      "componentType": 5126,
      "count": 18,
      "max": [
        0.6666666865348816
      ],
      "min": [
        0
      ],
      "bufferView": 3,
      "byteOffset": 27500
    },
    {
      "type": "VEC4",
      "componentType": 5126,
      "count": 18,
      "bufferView": 3,
      "byteOffset": 27572
    },
    {
      "type": "SCALAR",
      "componentType": 5126,
      "count": 10,
      "max": [
        0.6666666865348816
      ],
      "min": [
        0
      ],
      "bufferView": 3,
      "byteOffset": 27860
    },
    {
      "type": "VEC4",
      "componentType": 5126,
      "count": 10,
      "bufferView": 3,
      "byteOffset": 27900
    },
    {
      "type": "SCALAR",
      "componentType": 5126,
      "count": 13,
      "max": [
        0.6666666865348816
      ],
      "min": [
        0
      ],
      "bufferView": 3,
      "byteOffset": 28060
    },
    {
      "type": "VEC4",
      "componentType": 5126,
      "count": 13,
      "bufferView": 3,
      "byteOffset": 28112
    },
    {
      "type": "SCALAR",
      "componentType": 5126,
      "count": 18,
      "max": [
        0.6666666865348816
      ],
      "min": [
        0
      ],
      "bufferView": 3,
      "byteOffset": 28320
    },
    {
      "type": "VEC4",
      "componentType": 5126,
      "count": 18,
      "bufferView": 3,
      "byteOffset": 28392
    },
    {
      "type": "SCALAR",
      "componentType": 5126,
      "count": 14,
      "max": [
        0.6666666865348816
      ],
      "min": [
        0
      ],
      "bufferView": 3,
      "byteOffset": 28680
    },
    {
      "type": "VEC4",
      "componentType": 5126,
      "count": 14,
      "bufferView": 3,
      "byteOffset": 28736
    },
    {
      "type": "SCALAR",
      "componentType": 5126,
      "count": 2,
      "max": [
        0.1666666716337204
      ],
      "min": [
        0
      ],
      "bufferView": 3,
      "byteOffset": 28960
    },
    {
      "type": "VEC3",
      "componentType": 5126,
      "count": 2,
      "bufferView": 3,
      "byteOffset": 28968
    },
    {
      "type": "SCALAR",
      "componentType": 5126,
      "count": 2,
      "max": [
        0.1666666716337204
      ],
      "min": [
        0
      ],
      "bufferView": 3,
      "byteOffset": 28992
    },
    {
      "type": "VEC3",
      "componentType": 5126,
      "count": 2,
      "bufferView": 3,
      "byteOffset": 29000
    },
    {
      "type": "SCALAR",
      "componentType": 5126,
      "count": 2,
      "max": [
        0.1666666716337204
      ],
      "min": [
        0
      ],
      "bufferView": 3,
      "byteOffset": 29024
    },
    {
      "type": "VEC4",
      "componentType": 5126,
      "count": 2,
      "bufferView": 3,
      "byteOffset": 29032
    },
    {
      "type": "SCALAR",
      "componentType": 5126,
      "count": 2,
      "max": [
        0.1666666716337204
      ],
      "min": [
        0
      ],
      "bufferView": 3,
      "byteOffset": 29064
    },
    {
      "type": "VEC3",
      "componentType": 5126,
      "count": 2,
      "bufferView": 3,
      "byteOffset": 29072
    },
    {
      "type": "SCALAR",
      "componentType": 5126,
      "count": 2,
      "max": [
        0.1666666716337204
      ],
      "min": [
        0
      ],
      "bufferView": 3,
      "byteOffset": 29096
    },
    {
      "type": "VEC4",
      "componentType": 5126,
      "count": 2,
      "bufferView": 3,
      "byteOffset": 29104
    },
    {
      "type": "SCALAR",
      "componentType": 5126,
      "count": 2,
      "max": [
        0.1666666716337204
      ],
      "min": [
        0
      ],
      "bufferView": 3,
      "byteOffset": 29136
    },
    {
      "type": "VEC4",
      "componentType": 5126,
      "count": 2,
      "bufferView": 3,
      "byteOffset": 29144
    },
    {
      "type": "SCALAR",
      "componentType": 5126,
      "count": 2,
      "max": [
        0.1666666716337204
      ],
      "min": [
        0
      ],
      "bufferView": 3,
      "byteOffset": 29176
    },
    {
      "type": "VEC4",
      "componentType": 5126,
      "count": 2,
      "bufferView": 3,
      "byteOffset": 29184
    },
    {
      "type": "SCALAR",
      "componentType": 5126,
      "count": 2,
      "max": [
        0.3333333432674408
      ],
      "min": [
        0
      ],
      "bufferView": 3,
      "byteOffset": 29216
    },
    {
      "type": "VEC3",
      "componentType": 5126,
      "count": 2,
      "bufferView": 3,
      "byteOffset": 29224
    },
    {
      "type": "SCALAR",
      "componentType": 5126,
      "count": 2,
      "max": [
        0.3333333432674408
      ],
      "min": [
        0
      ],
      "bufferView": 3,
      "byteOffset": 29248
    },
    {
      "type": "VEC3",
      "componentType": 5126,
      "count": 2,
      "bufferView": 3,
      "byteOffset": 29256
    },
    {
      "type": "SCALAR",
      "componentType": 5126,
      "count": 2,
      "max": [
        0.3333333432674408
      ],
      "min": [
        0
      ],
      "bufferView": 3,
      "byteOffset": 29280
    },
    {
      "type": "VEC4",
      "componentType": 5126,
      "count": 2,
      "bufferView": 3,
      "byteOffset": 29288
    },
    {
      "type": "SCALAR",
      "componentType": 5126,
      "count": 2,
      "max": [
        0.3333333432674408
      ],
      "min": [
        0
      ],
      "bufferView": 3,
      "byteOffset": 29320
    },
    {
      "type": "VEC3",
      "componentType": 5126,
      "count": 2,
      "bufferView": 3,
      "byteOffset": 29328
    },
    {
      "type": "SCALAR",
      "componentType": 5126,
      "count": 2,
      "max": [
        0.3333333432674408
      ],
      "min": [
        0
      ],
      "bufferView": 3,
      "byteOffset": 29352
    },
    {
      "type": "VEC4",
      "componentType": 5126,
      "count": 2,
      "bufferView": 3,
      "byteOffset": 29360
    },
    {
      "type": "SCALAR",
      "componentType": 5126,
      "count": 2,
      "max": [
        0.3333333432674408
      ],
      "min": [
        0
      ],
      "bufferView": 3,
      "byteOffset": 29392
    },
    {
      "type": "VEC4",
      "componentType": 5126,
      "count": 2,
      "bufferView": 3,
      "byteOffset": 29400
    },
    {
      "type": "SCALAR",
      "componentType": 5126,
      "count": 2,
      "max": [
        0.3333333432674408
      ],
      "min": [
        0
      ],
      "bufferView": 3,
      "byteOffset": 29432
    },
    {
      "type": "VEC4",
      "componentType": 5126,
      "count": 2,
      "bufferView": 3,
      "byteOffset": 29440
    },
    {
      "type": "SCALAR",
      "componentType": 5126,
      "count": 10,
      "max": [
        0.3333333432674408
      ],
      "min": [
        0
      ],
      "bufferView": 3,
      "byteOffset": 29472
    },
    {
      "type": "VEC4",
      "componentType": 5126,
      "count": 10,
      "bufferView": 3,
      "byteOffset": 29512
    },
    {
      "type": "SCALAR",
      "componentType": 5126,
      "count": 10,
      "max": [
        0.3333333432674408
      ],
      "min": [
        0
      ],
      "bufferView": 3,
      "byteOffset": 29672
    },
    {
      "type": "VEC4",
      "componentType": 5126,
      "count": 10,
      "bufferView": 3,
      "byteOffset": 29712
    },
    {
      "type": "SCALAR",
      "componentType": 5126,
      "count": 2,
      "max": [
        0.3333333432674408
      ],
      "min": [
        0
      ],
      "bufferView": 3,
      "byteOffset": 29872
    },
    {
      "type": "VEC3",
      "componentType": 5126,
      "count": 2,
      "bufferView": 3,
      "byteOffset": 29880
    },
    {
      "type": "SCALAR",
      "componentType": 5126,
      "count": 2,
      "max": [
        0.3333333432674408
      ],
      "min": [
        0
      ],
      "bufferView": 3,
      "byteOffset": 29904
    },
    {
      "type": "VEC3",
      "componentType": 5126,
      "count": 2,
      "bufferView": 3,
      "byteOffset": 29912
    },
    {
      "type": "SCALAR",
      "componentType": 5126,
      "count": 2,
      "max": [
        0.3333333432674408
      ],
      "min": [
        0
      ],
      "bufferView": 3,
      "byteOffset": 29936
    },
    {
      "type": "VEC4",
      "componentType": 5126,
      "count": 2,
      "bufferView": 3,
      "byteOffset": 29944
    },
    {
      "type": "SCALAR",
      "componentType": 5126,
      "count": 2,
      "max": [
        0.3333333432674408
      ],
      "min": [
        0
      ],
      "bufferView": 3,
      "byteOffset": 29976
    },
    {
      "type": "VEC3",
      "componentType": 5126,
      "count": 2,
      "bufferView": 3,
      "byteOffset": 29984
    },
    {
      "type": "SCALAR",
      "componentType": 5126,
      "count": 2,
      "max": [
        0.3333333432674408
      ],
      "min": [
        0
      ],
      "bufferView": 3,
      "byteOffset": 30008
    },
    {
      "type": "VEC4",
      "componentType": 5126,
      "count": 2,
      "bufferView": 3,
      "byteOffset": 30016
    },
    {
      "type": "SCALAR",
      "componentType": 5126,
      "count": 2,
      "max": [
        0.3333333432674408
      ],
      "min": [
        0
      ],
      "bufferView": 3,
      "byteOffset": 30048
    },
    {
      "type": "VEC4",
      "componentType": 5126,
      "count": 2,
      "bufferView": 3,
      "byteOffset": 30056
    },
    {
      "type": "SCALAR",
      "componentType": 5126,
      "count": 2,
      "max": [
        0.3333333432674408
      ],
      "min": [
        0
      ],
      "bufferView": 3,
      "byteOffset": 30088
    },
    {
      "type": "VEC4",
      "componentType": 5126,
      "count": 2,
      "bufferView": 3,
      "byteOffset": 30096
    },
    {
      "type": "SCALAR",
      "componentType": 5126,
      "count": 10,
      "max": [
        0.3333333432674408
      ],
      "min": [
        0
      ],
      "bufferView": 3,
      "byteOffset": 30128
    },
    {
      "type": "VEC4",
      "componentType": 5126,
      "count": 10,
      "bufferView": 3,
      "byteOffset": 30168
    },
    {
      "type": "SCALAR",
      "componentType": 5126,
      "count": 10,
      "max": [
        0.3333333432674408
      ],
      "min": [
        0
      ],
      "bufferView": 3,
      "byteOffset": 30328
    },
    {
      "type": "VEC4",
      "componentType": 5126,
      "count": 10,
      "bufferView": 3,
      "byteOffset": 30368
    },
    {
      "type": "SCALAR",
      "componentType": 5126,
      "count": 2,
      "max": [
        0.5
      ],
      "min": [
        0
      ],
      "bufferView": 3,
      "byteOffset": 30528
    },
    {
      "type": "VEC3",
      "componentType": 5126,
      "count": 2,
      "bufferView": 3,
      "byteOffset": 30536
    },
    {
      "type": "SCALAR",
      "componentType": 5126,
      "count": 2,
      "max": [
        0.5
      ],
      "min": [
        0
      ],
      "bufferView": 3,
      "byteOffset": 30560
    },
    {
      "type": "VEC3",
      "componentType": 5126,
      "count": 2,
      "bufferView": 3,
      "byteOffset": 30568
    },
    {
      "type": "SCALAR",
      "componentType": 5126,
      "count": 2,
      "max": [
        0.5
      ],
      "min": [
        0
      ],
      "bufferView": 3,
      "byteOffset": 30592
    },
    {
      "type": "VEC4",
      "componentType": 5126,
      "count": 2,
      "bufferView": 3,
      "byteOffset": 30600
    },
    {
      "type": "SCALAR",
      "componentType": 5126,
      "count": 2,
      "max": [
        0.5
      ],
      "min": [
        0
      ],
      "bufferView": 3,
      "byteOffset": 30632
    },
    {
      "type": "VEC3",
      "componentType": 5126,
      "count": 2,
      "bufferView": 3,
      "byteOffset": 30640
    },
    {
      "type": "SCALAR",
      "componentType": 5126,
      "count": 2,
      "max": [
        0.5
      ],
      "min": [
        0
      ],
      "bufferView": 3,
      "byteOffset": 30664
    },
    {
      "type": "VEC4",
      "componentType": 5126,
      "count": 2,
      "bufferView": 3,
      "byteOffset": 30672
    },
    {
      "type": "SCALAR",
      "componentType": 5126,
      "count": 15,
      "max": [
        0.5
      ],
      "min": [
        0
      ],
      "bufferView": 3,
      "byteOffset": 30704
    },
    {
      "type": "VEC4",
      "componentType": 5126,
      "count": 15,
      "bufferView": 3,
      "byteOffset": 30764
    },
    {
      "type": "SCALAR",
      "componentType": 5126,
      "count": 15,
      "max": [
        0.5
      ],
      "min": [
        0
      ],
      "bufferView": 3,
      "byteOffset": 31004
    },
    {
      "type": "VEC4",
      "componentType": 5126,
      "count": 15,
      "bufferView": 3,
      "byteOffset": 31064
    },
    {
      "type": "SCALAR",
      "componentType": 5126,
      "count": 15,
      "max": [
        0.5
      ],
      "min": [
        0
      ],
      "bufferView": 3,
      "byteOffset": 31304
    },
    {
      "type": "VEC4",
      "componentType": 5126,
      "count": 15,
      "bufferView": 3,
      "byteOffset": 31364
    },
    {
      "type": "SCALAR",
      "componentType": 5126,
      "count": 15,
      "max": [
        0.5
      ],
      "min": [
        0
      ],
      "bufferView": 3,
      "byteOffset": 31604
    },
    {
      "type": "VEC4",
      "componentType": 5126,
      "count": 15,
      "bufferView": 3,
      "byteOffset": 31664
    },
    {
      "type": "SCALAR",
      "componentType": 5126,
      "count": 2,
      "max": [
        0.5
      ],
      "min": [
        0
      ],
      "bufferView": 3,
      "byteOffset": 31904
    },
    {
      "type": "VEC3",
      "componentType": 5126,
      "count": 2,
      "bufferView": 3,
      "byteOffset": 31912
    },
    {
      "type": "SCALAR",
      "componentType": 5126,
      "count": 2,
      "max": [
        0.5
      ],
      "min": [
        0
      ],
      "bufferView": 3,
      "byteOffset": 31936
    },
    {
      "type": "VEC3",
      "componentType": 5126,
      "count": 2,
      "bufferView": 3,
      "byteOffset": 31944
    },
    {
      "type": "SCALAR",
      "componentType": 5126,
      "count": 2,
      "max": [
        0.5
      ],
      "min": [
        0
      ],
      "bufferView": 3,
      "byteOffset": 31968
    },
    {
      "type": "VEC4",
      "componentType": 5126,
      "count": 2,
      "bufferView": 3,
      "byteOffset": 31976
    },
    {
      "type": "SCALAR",
      "componentType": 5126,
      "count": 2,
      "max": [
        0.5
      ],
      "min": [
        0
      ],
      "bufferView": 3,
      "byteOffset": 32008
    },
    {
      "type": "VEC3",
      "componentType": 5126,
      "count": 2,
      "bufferView": 3,
      "byteOffset": 32016
    },
    {
      "type": "SCALAR",
      "componentType": 5126,
      "count": 2,
      "max": [
        0.5
      ],
      "min": [
        0
      ],
      "bufferView": 3,
      "byteOffset": 32040
    },
    {
      "type": "VEC4",
      "componentType": 5126,
      "count": 2,
      "bufferView": 3,
      "byteOffset": 32048
    },
    {
      "type": "SCALAR",
      "componentType": 5126,
      "count": 15,
      "max": [
        0.5
      ],
      "min": [
        0
      ],
      "bufferView": 3,
      "byteOffset": 32080
    },
    {
      "type": "VEC4",
      "componentType": 5126,
      "count": 15,
      "bufferView": 3,
      "byteOffset": 32140
    },
    {
      "type": "SCALAR",
      "componentType": 5126,
      "count": 15,
      "max": [
        0.5
      ],
      "min": [
        0
      ],
      "bufferView": 3,
      "byteOffset": 32380
    },
    {
      "type": "VEC4",
      "componentType": 5126,
      "count": 15,
      "bufferView": 3,
      "byteOffset": 32440
    },
    {
      "type": "SCALAR",
      "componentType": 5126,
      "count": 15,
      "max": [
        0.5
      ],
      "min": [
        0
      ],
      "bufferView": 3,
      "byteOffset": 32680
    },
    {
      "type": "VEC4",
      "componentType": 5126,
      "count": 15,
      "bufferView": 3,
      "byteOffset": 32740
    },
    {
      "type": "SCALAR",
      "componentType": 5126,
      "count": 15,
      "max": [
        0.5
      ],
      "min": [
        0
      ],
      "bufferView": 3,
      "byteOffset": 32980
    },
    {
      "type": "VEC4",
      "componentType": 5126,
      "count": 15,
      "bufferView": 3,
      "byteOffset": 33040
    },
    {
      "type": "SCALAR",
      "componentType": 5126,
      "count": 2,
      "max": [
        0.5
      ],
      "min": [
        0
      ],
      "bufferView": 3,
      "byteOffset": 33280
    },
    {
      "type": "VEC3",
      "componentType": 5126,
      "count": 2,
      "bufferView": 3,
      "byteOffset": 33288
    },
    {
      "type": "SCALAR",
      "componentType": 5126,
      "count": 2,
      "max": [
        0.5
      ],
      "min": [
        0
      ],
      "bufferView": 3,
      "byteOffset": 33312
    },
    {
      "type": "VEC3",
      "componentType": 5126,
      "count": 2,
      "bufferView": 3,
      "byteOffset": 33320
    },
    {
      "type": "SCALAR",
      "componentType": 5126,
      "count": 2,
      "max": [
        0.5
      ],
      "min": [
        0
      ],
      "bufferView": 3,
      "byteOffset": 33344
    },
    {
      "type": "VEC4",
      "componentType": 5126,
      "count": 2,
      "bufferView": 3,
      "byteOffset": 33352
    },
    {
      "type": "SCALAR",
      "componentType": 5126,
      "count": 2,
      "max": [
        0.5
      ],
      "min": [
        0
      ],
      "bufferView": 3,
      "byteOffset": 33384
    },
    {
      "type": "VEC3",
      "componentType": 5126,
      "count": 2,
      "bufferView": 3,
      "byteOffset": 33392
    },
    {
      "type": "SCALAR",
      "componentType": 5126,
      "count": 2,
      "max": [
        0.5
      ],
      "min": [
        0
      ],
      "bufferView": 3,
      "byteOffset": 33416
    },
    {
      "type": "VEC4",
      "componentType": 5126,
      "count": 2,
      "bufferView": 3,
      "byteOffset": 33424
    },
    {
      "type": "SCALAR",
      "componentType": 5126,
      "count": 15,
      "max": [
        0.5
      ],
      "min": [
        0
      ],
      "bufferView": 3,
      "byteOffset": 33456
    },
    {
      "type": "VEC4",
      "componentType": 5126,
      "count": 15,
      "bufferView": 3,
      "byteOffset": 33516
    },
    {
      "type": "SCALAR",
      "componentType": 5126,
      "count": 2,
      "max": [
        0.5
      ],
      "min": [
        0
      ],
      "bufferView": 3,
      "byteOffset": 33756
    },
    {
      "type": "VEC4",
      "componentType": 5126,
      "count": 2,
      "bufferView": 3,
      "byteOffset": 33764
    },
    {
      "type": "SCALAR",
      "componentType": 5126,
      "count": 15,
      "max": [
        0.5
      ],
      "min": [
        0
      ],
      "bufferView": 3,
      "byteOffset": 33796
    },
    {
      "type": "VEC4",
      "componentType": 5126,
      "count": 15,
      "bufferView": 3,
      "byteOffset": 33856
    },
    {
      "type": "SCALAR",
      "componentType": 5126,
      "count": 15,
      "max": [
        0.5
      ],
      "min": [
        0
      ],
      "bufferView": 3,
      "byteOffset": 34096
    },
    {
      "type": "VEC4",
      "componentType": 5126,
      "count": 15,
      "bufferView": 3,
      "byteOffset": 34156
    },
    {
      "type": "SCALAR",
      "componentType": 5126,
      "count": 2,
      "max": [
        0.5
      ],
      "min": [
        0
      ],
      "bufferView": 3,
      "byteOffset": 34396
    },
    {
      "type": "VEC3",
      "componentType": 5126,
      "count": 2,
      "bufferView": 3,
      "byteOffset": 34404
    },
    {
      "type": "SCALAR",
      "componentType": 5126,
      "count": 2,
      "max": [
        0.5
      ],
      "min": [
        0
      ],
      "bufferView": 3,
      "byteOffset": 34428
    },
    {
      "type": "VEC3",
      "componentType": 5126,
      "count": 2,
      "bufferView": 3,
      "byteOffset": 34436
    },
    {
      "type": "SCALAR",
      "componentType": 5126,
      "count": 2,
      "max": [
        0.5
      ],
      "min": [
        0
      ],
      "bufferView": 3,
      "byteOffset": 34460
    },
    {
      "type": "VEC4",
      "componentType": 5126,
      "count": 2,
      "bufferView": 3,
      "byteOffset": 34468
    },
    {
      "type": "SCALAR",
      "componentType": 5126,
      "count": 2,
      "max": [
        0.5
      ],
      "min": [
        0
      ],
      "bufferView": 3,
      "byteOffset": 34500
    },
    {
      "type": "VEC3",
      "componentType": 5126,
      "count": 2,
      "bufferView": 3,
      "byteOffset": 34508
    },
    {
      "type": "SCALAR",
      "componentType": 5126,
      "count": 2,
      "max": [
        0.5
      ],
      "min": [
        0
      ],
      "bufferView": 3,
      "byteOffset": 34532
    },
    {
      "type": "VEC4",
      "componentType": 5126,
      "count": 2,
      "bufferView": 3,
      "byteOffset": 34540
    },
    {
      "type": "SCALAR",
      "componentType": 5126,
      "count": 15,
      "max": [
        0.5
      ],
      "min": [
        0
      ],
      "bufferView": 3,
      "byteOffset": 34572
    },
    {
      "type": "VEC4",
      "componentType": 5126,
      "count": 15,
      "bufferView": 3,
      "byteOffset": 34632
    },
    {
      "type": "SCALAR",
      "componentType": 5126,
      "count": 15,
      "max": [
        0.5
      ],
      "min": [
        0
      ],
      "bufferView": 3,
      "byteOffset": 34872
    },
    {
      "type": "VEC4",
      "componentType": 5126,
      "count": 15,
      "bufferView": 3,
      "byteOffset": 34932
    },
    {
      "type": "SCALAR",
      "componentType": 5126,
      "count": 2,
      "max": [
        0.5
      ],
      "min": [
        0
      ],
      "bufferView": 3,
      "byteOffset": 35172
    },
    {
      "type": "VEC4",
      "componentType": 5126,
      "count": 2,
      "bufferView": 3,
      "byteOffset": 35180
    },
    {
      "type": "SCALAR",
      "componentType": 5126,
      "count": 15,
      "max": [
        0.5
      ],
      "min": [
        0
      ],
      "bufferView": 3,
      "byteOffset": 35212
    },
    {
      "type": "VEC4",
      "componentType": 5126,
      "count": 15,
      "bufferView": 3,
      "byteOffset": 35272
    },
    {
      "type": "SCALAR",
      "componentType": 5126,
      "count": 98,
      "max": [
        3.450000047683716
      ],
      "min": [
        0
      ],
      "bufferView": 3,
      "byteOffset": 35512
    },
    {
      "type": "VEC4",
      "componentType": 5126,
      "count": 98,
      "bufferView": 3,
      "byteOffset": 35904
    },
    {
      "type": "SCALAR",
      "componentType": 5126,
      "count": 98,
      "max": [
        3.450000047683716
      ],
      "min": [
        0
      ],
      "bufferView": 3,
      "byteOffset": 37472
    },
    {
      "type": "VEC4",
      "componentType": 5126,
      "count": 98,
      "bufferView": 3,
      "byteOffset": 37864
    },
    {
      "type": "SCALAR",
      "componentType": 5126,
      "count": 98,
      "max": [
        3.450000047683716
      ],
      "min": [
        0
      ],
      "bufferView": 3,
      "byteOffset": 39432
    },
    {
      "type": "VEC4",
      "componentType": 5126,
      "count": 98,
      "bufferView": 3,
      "byteOffset": 39824
    },
    {
      "type": "SCALAR",
      "componentType": 5126,
      "count": 98,
      "max": [
        3.450000047683716
      ],
      "min": [
        0
      ],
      "bufferView": 3,
      "byteOffset": 41392
    },
    {
      "type": "VEC4",
      "componentType": 5126,
      "count": 98,
      "bufferView": 3,
      "byteOffset": 41784
    },
    {
      "type": "SCALAR",
      "componentType": 5126,
      "count": 58,
      "max": [
        3.450000047683716
      ],
      "min": [
        1.3833333253860474
      ],
      "bufferView": 3,
      "byteOffset": 43352
    },
    {
      "type": "VEC3",
      "componentType": 5126,
      "count": 58,
      "bufferView": 3,
      "byteOffset": 43584
    },
    {
      "type": "SCALAR",
      "componentType": 5126,
      "count": 9,
      "max": [
        2.9833333492279053
      ],
      "min": [
        2.6500000953674316
      ],
      "bufferView": 3,
      "byteOffset": 44280
    },
    {
      "type": "VEC4",
      "componentType": 5126,
      "count": 9,
      "bufferView": 3,
      "byteOffset": 44316
    },
    {
      "type": "SCALAR",
      "componentType": 5126,
      "count": 58,
      "max": [
        3.450000047683716
      ],
      "min": [
        1.3833333253860474
      ],
      "bufferView": 3,
      "byteOffset": 44460
    },
    {
      "type": "VEC4",
      "componentType": 5126,
      "count": 58,
      "bufferView": 3,
      "byteOffset": 44692
    },
    {
      "type": "SCALAR",
      "componentType": 5126,
      "count": 55,
      "max": [
        3.450000047683716
      ],
      "min": [
        1.3833333253860474
      ],
      "bufferView": 3,
      "byteOffset": 45620
    },
    {
      "type": "VEC4",
      "componentType": 5126,
      "count": 55,
      "bufferView": 3,
      "byteOffset": 45840
    },
    {
      "type": "MAT4",
      "componentType": 5126,
      "count": 7,
      "bufferView": 4,
      "byteOffset": 0
    },
    {
      "type": "MAT4",
      "componentType": 5126,
      "count": 7,
      "bufferView": 4,
      "byteOffset": 448
    }
  ],
  "bufferViews": [
    {
      "buffer": 0,
      "byteOffset": 0,
      "byteLength": 61920,
      "byteStride": 80,
      "target": 34962
    },
    {
      "buffer": 0,
      "byteOffset": 61920,
      "byteLength": 4392,
      "target": 34963
    },
    {
      "buffer": 0,
      "byteOffset": 66312,
      "byteLength": 43840,
      "byteStride": 80,
      "target": 34962
    },
    {
      "buffer": 0,
      "byteOffset": 110152,
      "byteLength": 46720
    },
    {
      "buffer": 0,
      "byteOffset": 156872,
      "byteLength": 896
    }
  ],
  "samplers": [
    {
      "magFilter": 9728,
      "minFilter": 9984,
      "wrapS": 10497,
      "wrapT": 10497
    }
  ],
  "textures": [
    {
      "source": 1,
      "sampler": 0
    }
  ],
  "images": [
    {
      "name": "colormap",
      "mimeType": "image/png",
      "uri": "Textures/colormap.png"
    },
    {
      "name": "colormap",
      "mimeType": "image/png",
      "uri": "baseColor_1.png"
    }
  ],
  "buffers": [
    {
      "uri": "character-female-c.bin",
      "byteLength": 157768
    }
  ],
  "materials": [
    {
      "name": "colormap",
      "doubleSided": true,
      "pbrMetallicRoughness": {
        "metallicFactor": 0,
        "baseColorTexture": {
          "index": 0
        }
      }
    }
  ],
  "meshes": [
    {
      "name": "body-mesh",
      "primitives": [
        {
          "attributes": {
            "POSITION": 0,
            "NORMAL": 1,
            "TANGENT": 2,
            "TEXCOORD_0": 3,
            "TEXCOORD_1": 4,
            "JOINTS_0": 5,
            "WEIGHTS_0": 6
          },
          "mode": 4,
          "material": 0,
          "indices": 7
        }
      ]
    },
    {
      "name": "head-mesh",
      "primitives": [
        {
          "attributes": {
            "POSITION": 9,
            "NORMAL": 10,
            "TANGENT": 11,
            "TEXCOORD_0": 12,
            "TEXCOORD_1": 13,
            "JOINTS_0": 14,
            "WEIGHTS_0": 15
          },
          "mode": 4,
          "material": 0,
          "indices": 8
        }
      ]
    }
  ],
  "nodes": [
    {
      "name": "character-female-c",
      "children": [
        1,
        8,
        9
      ]
    },
    {
      "name": "root",
      "children": [
        2,
        3,
        4
      ]
    },
    {
      "name": "leg-left",
      "translation": [
        0.0835709646,
        0.17625,
        -0.02875
      ]
    },
    {
      "name": "leg-right",
      "translation": [
        -0.08229596,
        0.17625,
        -0.02875
      ]
    },
    {
      "name": "torso",
      "translation": [
        -1.44382282e-15,
        0.17625,
        -0.02875
      ],
      "children": [
        5,
        6,
        7
      ]
    },
    {
      "name": "arm-left",
      "translation": [
        0.09989677,
        0.1115,
        0.0115
      ]
    },
    {
      "name": "arm-right",
      "translation": [
        -0.09989677,
        0.1115,
        0.0115
      ]
    },
    {
      "name": "head",
      "translation": [
        1.81968929e-9,
        0.167,
        0.0263887774
      ]
    },
    {
      "name": "body-mesh",
      "mesh": 0,
      "skin": 0
    },
    {
      "name": "head-mesh",
      "mesh": 1,
      "skin": 1
    }
  ],
  "skins": [
    {
      "inverseBindMatrices": 440,
      "joints": [
        1,
        2,
        3,
        4,
        5,
        6,
        7
      ]
    },
    {
      "inverseBindMatrices": 441,
      "joints": [
        1,
        2,
        3,
        4,
        5,
        6,
        7
      ]
    }
  ],
  "animations": [
    {
      "name": "AllAnimations",
      "samplers": [
        {
          "input": 424,
          "output": 425,
          "interpolation": "LINEAR"
        },
        {
          "input": 426,
          "output": 427,
          "interpolation": "LINEAR"
        },
        {
          "input": 428,
          "output": 429,
          "interpolation": "LINEAR"
        },
        {
          "input": 430,
          "output": 431,
          "interpolation": "LINEAR"
        },
        {
          "input": 432,
          "output": 433,
          "interpolation": "LINEAR"
        },
        {
          "input": 434,
          "output": 435,
          "interpolation": "LINEAR"
        },
        {
          "input": 436,
          "output": 437,
          "interpolation": "LINEAR"
        },
        {
          "input": 438,
          "output": 439,
          "interpolation": "LINEAR"
        }
      ],
      "channels": [
        {
          "sampler": 0,
          "target": {
            "node": 4,
            "path": "rotation"
          }
        },
        {
          "sampler": 1,
          "target": {
            "node": 5,
            "path": "rotation"
          }
        },
        {
          "sampler": 2,
          "target": {
            "node": 6,
            "path": "rotation"
          }
        },
        {
          "sampler": 3,
          "target": {
            "node": 7,
            "path": "rotation"
          }
        },
        {
          "sampler": 4,
          "target": {
            "node": 1,
            "path": "translation"
          }
        },
        {
          "sampler": 5,
          "target": {
            "node": 1,
            "path": "rotation"
          }
        },
        {
          "sampler": 6,
          "target": {
            "node": 2,
            "path": "rotation"
          }
        },
        {
          "sampler": 7,
          "target": {
            "node": 3,
            "path": "rotation"
          }
        }
      ]
    }
  ],
  "scenes": [
    {
      "name": "character-female-c",
      "nodes": [
        0
      ]
    }
  ],
  "scene": 0
}